REM DIRINDEX 1\2\3,1\2\4,1\2\5,1\2\6
REM DIRNAME folder01,folder02,folder03,folder04,folder05,folder06
TITLE ""
FILE "040 040.mp3" MP3
  TRACK 01 AUDIO
    TITLE "0:"
    INDEX 01 00:00:00
  TRACK 02 AUDIO
    TITLE "3:cjc157_1518"
    INDEX 01 00:00:09
  TRACK 03 AUDIO
    TITLE "0:"
    INDEX 01 00:01:48
  TRACK 04 AUDIO
    TITLE "4:cjc157_1519"
    INDEX 01 00:02:22
  TRACK 05 AUDIO
    TITLE "0:"
    INDEX 01 00:03:31
  TRACK 06 AUDIO
    TITLE "5:cjc157_1520"
    INDEX 01 00:04:01
  TRACK 07 AUDIO
    TITLE "0:"
    INDEX 01 00:06:30
  TRACK 08 AUDIO
    TITLE "3:cjc157_1521"
    INDEX 01 00:06:69
  TRACK 09 AUDIO
    TITLE "0:"
    INDEX 01 00:08:34
  TRACK 10 AUDIO
    TITLE "4:cjc157_1522"
    INDEX 01 00:09:08
  TRACK 11 AUDIO
    TITLE "0:"
    INDEX 01 00:10:19
  TRACK 12 AUDIO
    TITLE "5:cjc157_1523"
    INDEX 01 00:10:63
  TRACK 13 AUDIO
    TITLE "0:"
    INDEX 01 00:12:38
  TRACK 14 AUDIO
    TITLE "3:cjc157_1524"
    INDEX 01 00:13:06
  TRACK 15 AUDIO
    TITLE "0:"
    INDEX 01 00:14:54
  TRACK 16 AUDIO
    TITLE "4:cjc157_1525"
    INDEX 01 00:15:27
  TRACK 17 AUDIO
    TITLE "0:"
    INDEX 01 00:16:55
  TRACK 18 AUDIO
    TITLE "5:cjc157_1526"
    INDEX 01 00:17:25
  TRACK 19 AUDIO
    TITLE "0:"
    INDEX 01 00:19:65
  TRACK 20 AUDIO
    TITLE "3:cjc157_1527"
    INDEX 01 00:20:36
  TRACK 21 AUDIO
    TITLE "0:"
    INDEX 01 00:22:07
  TRACK 22 AUDIO
    TITLE "4:cjc157_1528"
    INDEX 01 00:22:52
  TRACK 23 AUDIO
    TITLE "0:"
    INDEX 01 00:23:65
  TRACK 24 AUDIO
    TITLE "5:cjc157_1529"
    INDEX 01 00:24:41
  TRACK 25 AUDIO
    TITLE "0:"
    INDEX 01 00:28:06
  TRACK 26 AUDIO
    TITLE "3:cjc157_1530"
    INDEX 01 00:28:53
  TRACK 27 AUDIO
    TITLE "0:"
    INDEX 01 00:30:08
  TRACK 28 AUDIO
    TITLE "4:cjc157_1531"
    INDEX 01 00:30:55
  TRACK 29 AUDIO
    TITLE "0:"
    INDEX 01 00:31:67
  TRACK 30 AUDIO
    TITLE "5:cjc157_1532"
    INDEX 01 00:32:41
  TRACK 31 AUDIO
    TITLE "0:"
    INDEX 01 00:35:33
  TRACK 32 AUDIO
    TITLE "5:cjc157_1533"
    INDEX 01 00:36:03
  TRACK 33 AUDIO
    TITLE "0:"
    INDEX 01 00:38:57
  TRACK 34 AUDIO
    TITLE "3:cjc157_1534"
    INDEX 01 00:39:29
  TRACK 35 AUDIO
    TITLE "0:"
    INDEX 01 00:40:34
  TRACK 36 AUDIO
    TITLE "4:cjc157_1535"
    INDEX 01 00:41:04
  TRACK 37 AUDIO
    TITLE "0:"
    INDEX 01 00:42:19
  TRACK 38 AUDIO
    TITLE "5:cjc157_1536"
    INDEX 01 00:42:70
  TRACK 39 AUDIO
    TITLE "0:"
    INDEX 01 00:45:28
  TRACK 40 AUDIO
    TITLE "5:cjc157_1537"
    INDEX 01 00:45:71
  TRACK 41 AUDIO
    TITLE "0:"
    INDEX 01 00:48:40
  TRACK 42 AUDIO
    TITLE "3:cjc157_1538"
    INDEX 01 00:49:10
  TRACK 43 AUDIO
    TITLE "0:"
    INDEX 01 00:50:21
  TRACK 44 AUDIO
    TITLE "4:cjc157_1539"
    INDEX 01 00:50:68
  TRACK 45 AUDIO
    TITLE "0:"
    INDEX 01 00:51:69
  TRACK 46 AUDIO
    TITLE "5:cjc157_1540"
    INDEX 01 00:52:39
  TRACK 47 AUDIO
    TITLE "0:"
    INDEX 01 00:55:51
  TRACK 48 AUDIO
    TITLE "5:cjc157_1541"
    INDEX 01 00:56:25
  TRACK 49 AUDIO
    TITLE "0:"
    INDEX 01 00:58:46
  TRACK 50 AUDIO
    TITLE "3:cjc157_1542"
    INDEX 01 00:59:16
  TRACK 51 AUDIO
    TITLE "0:"
    INDEX 01 01:00:13
  TRACK 52 AUDIO
    TITLE "4:cjc157_1543"
    INDEX 01 01:00:62
  TRACK 53 AUDIO
    TITLE "0:"
    INDEX 01 01:01:72
  TRACK 54 AUDIO
    TITLE "5:cjc157_1544"
    INDEX 01 01:02:40
  TRACK 55 AUDIO
    TITLE "0:"
    INDEX 01 01:05:24
  TRACK 56 AUDIO
    TITLE "3:cjc157_1545"
    INDEX 01 01:05:69
  TRACK 57 AUDIO
    TITLE "0:"
    INDEX 01 01:07:63
  TRACK 58 AUDIO
    TITLE "4:cjc157_1546"
    INDEX 01 01:08:35
  TRACK 59 AUDIO
    TITLE "0:"
    INDEX 01 01:09:40
  TRACK 60 AUDIO
    TITLE "5:cjc157_1547"
    INDEX 01 01:10:10
  TRACK 61 AUDIO
    TITLE "0:"
    INDEX 01 01:11:60
  TRACK 62 AUDIO
    TITLE "5:cjc157_1548"
    INDEX 01 01:12:32
  TRACK 63 AUDIO
    TITLE "0:"
    INDEX 01 01:14:45
  TRACK 64 AUDIO
    TITLE "3:cjc157_1549"
    INDEX 01 01:15:09
  TRACK 65 AUDIO
    TITLE "0:"
    INDEX 01 01:16:26
  TRACK 66 AUDIO
    TITLE "4:cjc157_1550"
    INDEX 01 01:17:02
  TRACK 67 AUDIO
    TITLE "0:"
    INDEX 01 01:17:71
  TRACK 68 AUDIO
    TITLE "5:cjc157_1551"
    INDEX 01 01:18:43
  TRACK 69 AUDIO
    TITLE "0:"
    INDEX 01 01:20:67
  TRACK 70 AUDIO
    TITLE "5:cjc157_1552"
    INDEX 01 01:21:37
  TRACK 71 AUDIO
    TITLE "0:"
    INDEX 01 01:23:65
